<svg width="359" height="238" viewBox="0 0 359 238" fill="none" xmlns="http://www.w3.org/2000/svg">
    <g clip-path="url(#clip0_27_24)">
        <path d="M128.773 136.971C141.076 115.381 164.545 98.8042 189.388 100.401C171.063 120.28 160.377 145.985 159.221 172.967C158.813 183.374 159.446 194.992 152.519 202.785C148.209 207.634 141.621 209.982 135.143 210.475C128.665 210.967 122.189 209.8 115.798 208.637L114.247 209.112C113.657 184.285 116.47 158.561 128.773 136.971Z" fill="#F0F0F0"/>
        <path d="M189.425 100.921C171.054 109.743 155.389 124.478 145.773 142.447C143.694 146.332 141.924 150.454 141.152 154.811C140.379 159.171 140.919 163.321 142.411 167.462C143.776 171.247 145.611 174.962 146.03 179.012C146.471 183.282 144.896 187.274 142.061 190.442C138.593 194.319 133.936 196.721 129.299 198.912C124.151 201.345 118.765 203.79 115.119 208.331C114.677 208.881 113.847 208.165 114.288 207.616C120.632 199.716 131.491 198.231 139.022 191.867C142.535 188.898 145.173 184.854 145.007 180.116C144.861 175.972 142.972 172.14 141.557 168.319C140.071 164.307 139.33 160.273 139.863 155.996C140.408 151.62 142.021 147.421 143.991 143.5C148.434 134.657 154.515 126.539 161.482 119.521C169.488 111.454 178.818 104.813 189.069 99.8852C189.704 99.5804 190.055 100.618 189.425 100.921Z" fill="white"/>
        <path d="M148.589 136.442C145.773 134.387 143.78 131.401 142.967 128.017C142.154 124.632 142.574 121.069 144.151 117.965C144.472 117.338 145.464 117.806 145.142 118.434C143.668 121.322 143.278 124.641 144.042 127.791C144.805 130.942 146.673 133.716 149.306 135.613C149.878 136.026 149.158 136.852 148.589 136.442Z" fill="white"/>
        <path d="M141.466 165.633C148.523 164.605 154.932 160.961 159.416 155.427C159.859 154.879 160.689 155.595 160.246 156.142C155.57 161.892 148.893 165.671 141.546 166.725C140.846 166.825 140.77 165.733 141.466 165.633Z" fill="white"/>
        <path d="M170.03 112.801C170.953 113.822 172.117 114.599 173.416 115.061C174.715 115.523 176.108 115.656 177.471 115.448C178.17 115.339 178.246 116.431 177.552 116.539C176.045 116.762 174.506 116.614 173.07 116.106C171.633 115.599 170.344 114.749 169.313 113.63C169.207 113.532 169.142 113.398 169.131 113.255C169.121 113.112 169.165 112.97 169.256 112.858C169.352 112.749 169.486 112.681 169.631 112.671C169.776 112.66 169.919 112.707 170.03 112.801Z" fill="white"/>
        <path d="M238.818 168.509C238.384 168.589 237.949 168.669 237.511 168.758C231.678 169.868 225.944 171.449 220.367 173.485C219.934 173.636 219.497 173.795 219.068 173.958C205.685 179.007 193.358 186.49 182.713 196.028C178.481 199.827 174.544 203.942 170.938 208.337C165.958 214.407 161.042 221.384 154.534 225.342C153.86 225.762 153.16 226.141 152.439 226.475L114.948 210.962C114.881 210.884 114.809 210.815 114.742 210.736L113.216 210.185C113.386 209.946 113.568 209.701 113.738 209.461C113.836 209.322 113.943 209.186 114.041 209.046C114.109 208.955 114.177 208.863 114.233 208.776C114.256 208.745 114.279 208.715 114.298 208.693C114.354 208.606 114.416 208.531 114.468 208.453C115.479 207.082 116.502 205.715 117.537 204.352C117.54 204.344 117.54 204.344 117.552 204.339C125.459 193.979 134.302 184.187 144.354 176.046C144.657 175.801 144.962 175.547 145.282 175.309C149.833 171.664 154.676 168.397 159.761 165.539C162.55 163.983 165.417 162.569 168.35 161.302C175.934 158.044 183.985 155.995 192.207 155.232C208.598 153.714 225.294 157.442 237.865 167.714C238.186 167.977 238.5 168.237 238.818 168.509Z" fill="#F0F0F0"/>
        <path d="M238.536 168.948C218.543 164.959 197.143 167.315 178.62 175.887C174.615 177.74 170.714 179.968 167.468 182.984C164.22 186.001 162.146 189.639 160.839 193.841C159.644 197.683 158.867 201.752 156.757 205.237C154.532 208.911 150.865 211.152 146.69 211.98C141.581 212.992 136.412 212.112 131.388 211.077C125.809 209.928 120.033 208.645 114.381 210.081C113.696 210.255 113.466 209.185 114.149 209.011C123.983 206.514 133.549 211.85 143.403 211.292C148 211.031 152.547 209.387 155.274 205.504C157.659 202.108 158.463 197.913 159.639 194.013C160.874 189.917 162.717 186.251 165.725 183.156C168.801 179.989 172.622 177.605 176.562 175.657C185.447 171.266 195.202 168.436 204.999 167.017C216.26 165.385 227.718 165.686 238.878 167.908C239.568 168.046 239.222 169.085 238.536 168.948Z" fill="white"/>
        <path d="M184.493 172.784C183.485 169.452 183.696 165.871 185.089 162.68C186.483 159.49 188.968 156.897 192.101 155.365C192.736 155.058 193.245 156.027 192.609 156.336C189.689 157.757 187.375 160.172 186.083 163.146C184.791 166.12 184.608 169.456 185.566 172.553C185.773 173.226 184.7 173.453 184.493 172.784Z" fill="white"/>
        <path d="M161.187 191.814C167.443 195.231 174.76 196.17 181.679 194.445C182.364 194.274 182.595 195.344 181.911 195.515C174.707 197.297 167.095 196.304 160.593 192.733C159.973 192.393 160.571 191.475 161.187 191.814Z" fill="white"/>
        <path d="M215.88 166.785C216.001 168.156 216.462 169.474 217.22 170.623C217.978 171.772 219.011 172.715 220.225 173.368C220.848 173.701 220.249 174.618 219.63 174.288C218.292 173.561 217.153 172.518 216.313 171.25C215.472 169.983 214.955 168.529 214.808 167.016C214.782 166.875 214.811 166.729 214.889 166.608C214.967 166.487 215.089 166.401 215.228 166.366C215.371 166.336 215.519 166.363 215.641 166.442C215.763 166.52 215.849 166.644 215.88 166.785Z" fill="white"/>
        <path d="M167.401 194.102C162.151 168.776 155.587 160.333 155.587 160.333L153.08 158.393L150.065 156.057L150.08 155.757L149.364 155.514L149.196 155.384L148.921 155.173L148.877 155.221L148.783 155.317L135.139 150.691L117.83 144.825L109.814 134.432C108.509 132.739 106.828 131.371 104.904 130.435C102.98 129.499 100.864 129.02 98.7234 129.036L73.1244 129.224C69.6631 129.25 66.3366 130.566 63.7989 132.915L46.9731 148.484L20.7552 160.975L20.7109 160.931L20.4356 161.127L16.3847 163.059L16.5519 163.927L14.0446 165.732C14.0446 165.732 7.48159 173.588 2.23112 197.153C0.895465 203.149 0.238005 216.011 0.000697402 231.861C-0.0112225 232.662 0.136758 233.458 0.436031 234.203C0.735304 234.947 1.1799 235.624 1.74397 236.196C2.30804 236.767 2.98033 237.221 3.72174 237.53C4.46316 237.84 5.25891 238 6.06273 238H146.098L163.576 238C164.379 238 165.174 237.84 165.915 237.531C166.656 237.221 167.328 236.768 167.892 236.197C168.456 235.627 168.901 234.95 169.2 234.207C169.5 233.463 169.649 232.668 169.638 231.867C169.406 214.62 168.749 200.604 167.401 194.102Z" fill="#3F3D56"/>
        <path d="M185.368 22.0855C179.92 22.0855 174.695 24.2445 170.842 28.0876C166.99 31.9307 164.826 37.143 164.826 42.5779C164.826 48.0128 166.99 53.2251 170.842 57.0682C174.695 60.9113 179.92 63.0703 185.368 63.0703H338.458C343.906 63.0703 349.131 60.9113 352.983 57.0682C356.836 53.2251 359 48.0128 359 42.5779C359 37.143 356.836 31.9307 352.983 28.0876C349.131 24.2445 343.906 22.0855 338.458 22.0855H185.368Z" fill="#E5E5E5"/>
        <path d="M185.368 26.2328C181.023 26.2328 176.855 27.9549 173.782 31.0202C170.709 34.0855 168.983 38.2429 168.983 42.5779C168.983 46.9129 170.709 51.0704 173.782 54.1357C176.855 57.201 181.023 58.923 185.368 58.923H338.458C342.803 58.923 346.971 57.201 350.044 54.1357C353.116 51.0704 354.843 46.9129 354.843 42.5779C354.843 38.2429 353.116 34.0855 350.044 31.0202C346.971 27.9549 342.803 26.2328 338.458 26.2328H185.368Z" fill="white"/>
        <path d="M89.944 119.442C108.466 119.442 123.481 104.463 123.481 85.9863C123.481 67.5093 108.466 52.5308 89.944 52.5308C71.4219 52.5308 56.4068 67.5093 56.4068 85.9863C56.4068 104.463 71.4219 119.442 89.944 119.442Z" fill="#9E616A"/>
        <path d="M81.3645 117.804C81.2212 117.489 81.0784 117.173 80.9359 116.856C80.9908 116.858 81.0452 116.866 81.1001 116.868L81.3645 117.804Z" fill="#2F2E41"/>
        <path d="M55.4742 54.0522C57.1704 52.7024 59.1529 51.4604 61.3216 51.5302C63.4902 51.5999 65.6894 53.5538 65.2401 55.6714C69.2234 48.6357 75.5638 43.2243 83.1482 40.3873C90.7326 37.5503 99.0764 37.4688 106.715 40.1573C112.105 42.0543 117.391 45.8494 118.629 51.4158C118.947 52.8447 119.015 54.4114 119.909 55.5717C121.037 57.0347 123.194 57.3656 124.971 56.851C124.989 56.8458 125.006 56.8406 125.024 56.8353C125.324 56.7331 125.648 56.723 125.954 56.8065C126.26 56.8899 126.534 57.063 126.74 57.3033C126.946 57.5437 127.075 57.8402 127.111 58.1546C127.146 58.4689 127.086 58.7867 126.939 59.0667L125.414 61.9041C127.336 62.3316 129.334 62.2892 131.236 61.7806C131.552 61.6979 131.886 61.7148 132.192 61.8289C132.498 61.943 132.762 62.1488 132.946 62.4181C133.13 62.6873 133.226 63.0068 133.221 63.3327C133.216 63.6586 133.11 63.9749 132.918 64.2384C127.889 71.1258 119.487 75.5734 110.914 75.5212C104.82 75.4841 98.6639 73.3891 92.7335 74.787C90.4392 75.3277 88.2955 76.3741 86.4594 77.8491C84.6234 79.3242 83.1418 81.1906 82.1232 83.3114C81.1045 85.4323 80.5748 87.7537 80.5729 90.1053C80.5709 92.457 81.0968 94.7793 82.1119 96.9018C80.29 94.9139 76.7682 95.3846 74.9046 97.3336C73.0411 99.2827 72.5586 102.192 72.7464 104.879C73.0335 108.988 74.6476 112.861 76.3492 116.63C62.0829 116.182 48.5893 106.198 44.0473 92.6958C39.4863 79.1366 44.2664 62.9712 55.4742 54.0522Z" fill="#2F2E41"/>
        <path opacity="0.2" d="M33.0092 186.456L42.4157 237.51L48.0597 238L33.0092 186.456Z" fill="black"/>
        <path opacity="0.2" d="M136.623 182.605L127.216 237.473L121.572 238L136.623 182.605Z" fill="black"/>
        <path d="M63.4971 36.87C61.6936 37.6213 59.8116 36.798 59.0224 34.9125C58.2211 32.9981 58.9695 31.0548 60.8019 30.2915C62.6346 29.5281 64.483 30.3535 65.2972 32.2987C66.0992 34.2147 65.359 36.0945 63.4971 36.87ZM60.0423 26.5235L58.6082 27.1208C58.25 27.2683 57.8493 27.2762 57.4855 27.1431C57.1217 27.01 56.8212 26.7455 56.6434 26.4019L56.5725 26.2635C55.0295 23.4875 54.8528 20.1137 56.0502 16.2411C57.1594 12.7672 57.6201 10.3239 56.6936 8.11052C55.6224 5.5514 53.335 4.74975 50.418 5.91103C49.2866 6.38229 48.9266 6.37478 48.0363 7.25583C47.8426 7.44981 47.6118 7.6029 47.3575 7.70597C47.1033 7.80904 46.8308 7.85997 46.5564 7.85574C46.2911 7.85262 46.0292 7.79625 45.7863 7.68998C45.5433 7.5837 45.3243 7.42971 45.1422 7.23717C44.7916 6.86613 44.5951 6.37617 44.5925 5.86624C44.5899 5.3563 44.7814 4.86438 45.1283 4.48983C46.6248 2.92713 48.4298 1.69084 50.4293 0.858959C56.6966 -1.7517 59.8516 2.10256 61.2954 5.55177C62.7076 8.92549 61.9132 12.0557 60.6368 16.1097C59.5672 19.4783 59.6295 21.9744 60.8445 24.4563C60.9323 24.6439 60.9811 24.8473 60.988 25.0542C60.995 25.2612 60.9599 25.4673 60.885 25.6604C60.8101 25.8535 60.6968 26.0295 60.552 26.1778C60.4072 26.3261 60.2338 26.4437 60.0423 26.5235Z" fill="#62B8E4"/>
        <path d="M219.184 52.3514H188.724C188.628 52.352 188.532 52.3336 188.442 52.2971C188.353 52.2606 188.271 52.2068 188.202 52.1388C188.134 52.0708 188.079 51.9899 188.042 51.9008C188.005 51.8116 187.986 51.716 187.986 51.6195C187.986 51.523 188.005 51.4274 188.042 51.3383C188.079 51.2492 188.134 51.1683 188.202 51.1002C188.271 51.0322 188.353 50.9784 188.442 50.9419C188.532 50.9054 188.628 50.887 188.724 50.8877H219.184C219.377 50.889 219.563 50.9666 219.699 51.1038C219.836 51.2409 219.912 51.4263 219.912 51.6195C219.912 51.8128 219.836 51.9982 219.699 52.1353C219.563 52.2724 219.377 52.3501 219.184 52.3514Z" fill="#62B8E4"/>
        <path d="M257.823 52.5953H227.364C227.267 52.5959 227.171 52.5775 227.081 52.541C226.992 52.5045 226.91 52.4507 226.842 52.3827C226.773 52.3147 226.718 52.2338 226.681 52.1447C226.644 52.0555 226.625 51.96 226.625 51.8634C226.625 51.7669 226.644 51.6713 226.681 51.5822C226.718 51.4931 226.773 51.4122 226.842 51.3441C226.91 51.2761 226.992 51.2223 227.081 51.1858C227.171 51.1493 227.267 51.1309 227.364 51.1315H257.823C257.92 51.1309 258.016 51.1493 258.105 51.1858C258.195 51.2223 258.276 51.2761 258.345 51.3441C258.413 51.4122 258.468 51.4931 258.505 51.5822C258.542 51.6713 258.561 51.7669 258.561 51.8634C258.561 51.96 258.542 52.0555 258.505 52.1447C258.468 52.2338 258.413 52.3147 258.345 52.3827C258.276 52.4507 258.195 52.5045 258.105 52.541C258.016 52.5775 257.92 52.5959 257.823 52.5953Z" fill="#62B8E4"/>
        <path d="M296.462 52.8392H266.003C265.809 52.8379 265.624 52.7602 265.487 52.6231C265.351 52.486 265.274 52.3006 265.274 52.1074C265.274 51.9141 265.351 51.7287 265.487 51.5916C265.624 51.4545 265.809 51.3768 266.003 51.3755H296.462C296.559 51.3748 296.655 51.3933 296.744 51.4298C296.834 51.4663 296.915 51.5201 296.984 51.5881C297.053 51.6561 297.107 51.737 297.144 51.8261C297.182 51.9153 297.201 52.0108 297.201 52.1074C297.201 52.2039 297.182 52.2995 297.144 52.3886C297.107 52.4777 297.053 52.5586 296.984 52.6267C296.915 52.6947 296.834 52.7485 296.744 52.785C296.655 52.8215 296.559 52.8399 296.462 52.8392Z" fill="#62B8E4"/>
        <path d="M335.101 53.0832H304.642C304.448 53.0819 304.263 53.0042 304.127 52.8671C303.99 52.73 303.913 52.5446 303.913 52.3513C303.913 52.1581 303.99 51.9727 304.127 51.8356C304.263 51.6984 304.448 51.6208 304.642 51.6194H335.101C335.295 51.6208 335.48 51.6984 335.617 51.8356C335.753 51.9727 335.83 52.1581 335.83 52.3513C335.83 52.5446 335.753 52.73 335.617 52.8671C335.48 53.0042 335.295 53.0819 335.101 53.0832Z" fill="#62B8E4"/>
        <path d="M203.887 45.6159C207.013 45.6159 209.548 43.0875 209.548 39.9686C209.548 36.8497 207.013 34.3213 203.887 34.3213C200.76 34.3213 198.226 36.8497 198.226 39.9686C198.226 43.0875 200.76 45.6159 203.887 45.6159Z" fill="#62B8E4"/>
        <path d="M242.76 45.6159C245.886 45.6159 248.421 43.0875 248.421 39.9686C248.421 36.8497 245.886 34.3213 242.76 34.3213C239.633 34.3213 237.099 36.8497 237.099 39.9686C237.099 43.0875 239.633 45.6159 242.76 45.6159Z" fill="#62B8E4"/>
        <path d="M281.632 45.6159C284.759 45.6159 287.293 43.0875 287.293 39.9686C287.293 36.8497 284.759 34.3213 281.632 34.3213C278.506 34.3213 275.971 36.8497 275.971 39.9686C275.971 43.0875 278.506 45.6159 281.632 45.6159Z" fill="#62B8E4"/>
        <path d="M320.505 45.6159C323.631 45.6159 326.166 43.0875 326.166 39.9686C326.166 36.8497 323.631 34.3213 320.505 34.3213C317.378 34.3213 314.844 36.8497 314.844 39.9686C314.844 43.0875 317.378 45.6159 320.505 45.6159Z" fill="#62B8E4"/>
    </g>
    <defs>
        <clipPath id="clip0_27_24">
            <rect width="359" height="238" fill="white"/>
        </clipPath>
    </defs>
</svg>
