<svg width="337" height="241" viewBox="0 0 337 241" fill="none" xmlns="http://www.w3.org/2000/svg">
    <g clip-path="url(#clip0_31_648)">
        <path d="M327.036 70.6228H142.626C140.03 70.6251 137.541 71.6562 135.706 73.4896C133.87 75.323 132.838 77.8089 132.836 80.4017V110.253C132.838 112.846 133.87 115.332 135.706 117.165C137.541 118.999 140.03 120.03 142.626 120.032H327.036C329.632 120.03 332.121 118.999 333.957 117.165C335.792 115.332 336.824 112.846 336.827 110.253V80.4017C336.824 77.8089 335.792 75.323 333.957 73.4896C332.121 71.6562 329.632 70.6251 327.036 70.6228Z" fill="#F2F2F2"/>
        <path d="M73.9536 241H0.586933C0.431269 241 0.281971 240.938 0.171899 240.828C0.0618281 240.718 0 240.569 0 240.414C0 240.258 0.0618281 240.109 0.171899 239.999C0.281971 239.889 0.431269 239.828 0.586933 239.828H73.9536C74.1093 239.828 74.2586 239.889 74.3686 239.999C74.4787 240.109 74.5405 240.258 74.5405 240.414C74.5405 240.569 74.4787 240.718 74.3686 240.828C74.2586 240.938 74.1093 241 73.9536 241Z" fill="#3F3D56"/>
        <path d="M63.1814 57.4402C62.501 57.8692 61.923 58.4419 61.4882 59.1182C61.0534 59.7944 60.7723 60.5576 60.6648 61.354C60.5572 62.1505 60.6258 62.9608 60.8657 63.7279C61.1056 64.495 61.5109 65.2003 62.0532 65.794L56.7195 77.1706L62.8505 82.0943L70.1568 65.9227C71.095 64.9466 71.6422 63.6607 71.6946 62.3087C71.747 60.9566 71.301 59.6323 70.4412 58.5867C69.5814 57.5411 68.3674 56.8469 67.0294 56.6356C65.6913 56.4243 64.3222 56.7106 63.1814 57.4402Z" fill="#FFB8B8"/>
        <path d="M32.5306 62.0569C34.2186 61.0441 36.2322 60.7192 38.1536 61.1494C40.0751 61.5796 41.757 62.7321 42.8506 64.3677L53.7645 80.6904L57.5535 72.3471C57.7901 71.8261 58.2092 71.4095 58.7319 71.1757C59.2546 70.9418 59.8448 70.9069 60.3915 71.0775L66.1102 72.8618C66.409 72.955 66.6861 73.107 66.9252 73.3087C67.1643 73.5104 67.3606 73.7579 67.5026 74.0365C67.6445 74.3152 67.7293 74.6194 67.7518 74.9312C67.7744 75.243 67.7343 75.5562 67.6339 75.8523L63.7193 87.3982C63.2241 88.8587 62.3967 90.1847 61.3021 91.2721C60.2076 92.3595 58.8755 93.1787 57.4107 93.6653C55.9458 94.152 54.3879 94.2929 52.8594 94.077C51.3308 93.8611 49.8731 93.2943 48.6008 92.421C48.0062 92.0129 47.4577 91.5417 46.9647 91.0156L30.8813 73.8504C30.1003 73.0169 29.5158 72.0194 29.1706 70.931C28.8255 69.8427 28.7284 68.691 28.8866 67.5603C29.0447 66.4296 29.454 65.3486 30.0845 64.3963C30.715 63.4441 31.5508 62.6448 32.5306 62.0569Z" fill="#CCCCCC"/>
        <path d="M67.8365 45.1915C68.1294 45.1988 68.4075 45.322 68.6095 45.534C68.8115 45.746 68.9209 46.0295 68.9136 46.3221L68.8194 50.1109L69.0096 50.1282L68.9413 52.7015L68.7555 52.6784L68.418 66.2516C68.4065 66.7161 68.2261 67.1606 67.9105 67.5021C67.595 67.8436 67.1658 68.0587 66.7032 68.1074L58.0624 69.016C57.852 69.0381 57.6394 69.014 57.4393 68.9454C57.2392 68.8767 57.0566 68.7652 56.9043 68.6186C56.752 68.472 56.6336 68.2939 56.5574 68.0967C56.4813 67.8996 56.4492 67.6882 56.4635 67.4774L57.774 48.1501C57.8016 47.7442 57.9665 47.3597 58.2418 47.0598C58.5172 46.7599 58.8864 46.5625 59.2889 46.5001L67.6304 45.2057C67.6985 45.1945 67.7675 45.1898 67.8365 45.1915Z" fill="#3F3D56"/>
        <path d="M61.1493 47.203L65.5345 46.5226C65.6134 46.5103 65.6861 46.4724 65.7413 46.4148C65.7965 46.3571 65.8311 46.2828 65.8398 46.2035C65.8496 46.1137 65.8888 46.0296 65.9513 45.9643C66.0139 45.8989 66.0962 45.856 66.1856 45.8421L67.1093 45.6988C67.2353 45.6792 67.3641 45.6876 67.4866 45.7231C67.6091 45.7587 67.7222 45.8207 67.8181 45.9048C67.914 45.9888 67.9902 46.0929 68.0414 46.2095C68.0927 46.3262 68.1176 46.4527 68.1145 46.5801L67.6398 66.2589C67.6339 66.5031 67.5382 66.7366 67.3709 66.9148C67.2036 67.0931 66.9766 67.2035 66.733 67.2252L58.0986 67.9919C57.9884 68.0017 57.8775 67.9876 57.7733 67.9507C57.6691 67.9137 57.5741 67.8547 57.4948 67.7777C57.4155 67.7007 57.3538 67.6075 57.3139 67.5045C57.274 67.4015 57.2568 67.2911 57.2635 67.1808L58.4285 48.0321C58.4457 47.75 58.5589 47.4822 58.7495 47.2732C58.94 47.0643 59.1964 46.9266 59.476 46.8833L60.4497 46.7322C60.4855 46.8842 60.5774 47.0172 60.7071 47.1045C60.8368 47.1918 60.9948 47.227 61.1493 47.203Z" fill="white"/>
        <path d="M40.8048 233.884L47.5147 233.883L50.7058 208.032L40.8025 208.033L40.8048 233.884Z" fill="#FFB8B8"/>
        <path d="M60.4557 240.106L39.3673 240.108L39.3666 231.969L52.3072 231.968C53.3772 231.968 54.4367 232.178 55.4253 232.587C56.4138 232.996 57.3121 233.596 58.0687 234.351C58.8254 235.107 59.4256 236.004 59.8352 236.991C60.2447 237.979 60.4556 239.037 60.4557 240.106Z" fill="#2F2E41"/>
        <path d="M20.1823 233.884L26.8921 233.883L30.0833 208.032L20.1799 208.033L20.1823 233.884Z" fill="#FFB8B8"/>
        <path d="M39.8334 240.106L18.745 240.108L18.7443 231.969L31.6849 231.968C33.8458 231.968 35.9183 232.825 37.4464 234.351C38.9746 235.877 39.8332 237.947 39.8334 240.106Z" fill="#2F2E41"/>
        <path d="M39.8334 53.271C47.795 53.271 54.2491 46.8244 54.2491 38.872C54.2491 30.9197 47.795 24.473 39.8334 24.473C31.8718 24.473 25.4177 30.9197 25.4177 38.872C25.4177 46.8244 31.8718 53.271 39.8334 53.271Z" fill="#FFB8B8"/>
        <path d="M47.2525 77.3963C47.1348 73.6943 46.0913 70.0806 44.2174 66.8845C42.3434 63.6884 39.6985 61.0116 36.5236 59.0979C32.7993 56.9059 28.7228 56.051 25.4796 59.2905C23.5322 61.2844 21.9726 63.6224 20.8804 66.1855C17.8803 73.17 17.684 81.0393 20.3322 88.1644L28.0513 109.465L45.917 111.399C46.2526 111.435 46.5921 111.398 46.9123 111.292C47.2325 111.185 47.526 111.011 47.7726 110.781C48.0193 110.551 48.2133 110.27 48.3416 109.958C48.4698 109.646 48.5292 109.31 48.5158 108.973L47.2525 77.3963Z" fill="#2F2E41"/>
        <path d="M29.184 106.842C29.184 106.842 15.8364 111.819 19.3261 132.895C22.4576 151.806 19.969 214.577 19.4251 227.266C19.3992 227.871 19.6087 228.462 20.0096 228.916C20.4106 229.37 20.9718 229.651 21.5758 229.701L29.3674 230.349C29.9776 230.4 30.5836 230.211 31.056 229.822C31.5285 229.432 31.83 228.874 31.8963 228.266L35.9203 191.348C35.936 191.203 36.0053 191.069 36.1145 190.972C36.2237 190.876 36.365 190.823 36.5109 190.825C36.6568 190.827 36.7968 190.883 36.9036 190.982C37.0104 191.081 37.0764 191.217 37.0886 191.362L40.0871 226.886C40.1376 227.485 40.4161 228.041 40.8652 228.44C41.3143 228.84 41.8997 229.052 42.5008 229.033L49.0452 228.826C49.3536 228.816 49.657 228.746 49.9382 228.619C50.2193 228.492 50.4727 228.311 50.6837 228.086C50.8947 227.861 51.0593 227.597 51.168 227.309C51.2768 227.02 51.3275 226.713 51.3174 226.405L47.4623 109.304L29.184 106.842Z" fill="#2F2E41"/>
        <path d="M42.7266 37.9233C47.5479 39.8984 53.7048 37.5912 56.0358 32.9361C58.3668 28.2809 56.5221 21.9763 52.0481 19.3076C47.5741 16.639 41.1423 18.0069 38.1448 22.2645C35.7064 17.8766 29.3185 16.7579 24.9327 19.2063C20.5469 21.6547 18.158 26.783 17.8746 31.7935C17.5913 36.804 19.1164 41.7401 20.9768 46.4019C23.9861 53.9426 33.6739 58.0028 41.1692 54.8647C37.7378 49.76 38.4152 42.2898 42.7266 37.9233Z" fill="#2F2E41"/>
        <path d="M62.1548 59.1861C62.0265 59.1863 61.9016 59.1448 61.7989 59.0679L61.7926 59.0632L60.4522 58.039C60.3902 57.9915 60.3381 57.9322 60.2989 57.8646C60.2598 57.7969 60.2344 57.7223 60.2241 57.6448C60.2139 57.5674 60.219 57.4886 60.2392 57.4132C60.2594 57.3377 60.2943 57.2669 60.3419 57.2049C60.3895 57.1429 60.4489 57.0909 60.5166 57.0518C60.5843 57.0127 60.6591 56.9873 60.7366 56.9771C60.8142 56.9668 60.893 56.972 60.9685 56.9922C61.0441 57.0124 61.1149 57.0472 61.177 57.0947L62.0452 57.7597L64.0967 55.0864C64.1442 55.0244 64.2035 54.9724 64.2712 54.9333C64.3389 54.8942 64.4137 54.8689 64.4912 54.8586C64.5687 54.8484 64.6475 54.8535 64.723 54.8737C64.7985 54.8939 64.8693 54.9288 64.9314 54.9763C65.0566 55.0724 65.139 55.2143 65.1596 55.3706C65.1803 55.527 65.138 55.6851 65.042 55.8103L62.629 58.9533C62.5732 59.0257 62.5014 59.0843 62.4193 59.1246C62.3371 59.1648 62.2468 59.1856 62.1553 59.1853L62.1548 59.1861Z" fill="#62B8E4"/>
        <path d="M327.21 0H142.799C140.203 0.00234863 137.714 1.03338 135.879 2.86677C134.043 4.70016 133.011 7.18609 133.009 9.77889V39.6302C133.011 42.223 134.043 44.709 135.879 46.5424C137.714 48.3758 140.203 49.4068 142.799 49.4091H327.21C329.806 49.4068 332.294 48.3758 334.13 46.5424C335.965 44.709 336.998 42.223 337 39.6302V9.77889C336.998 7.18609 335.965 4.70015 334.13 2.86676C332.294 1.03338 329.806 0.00234863 327.21 0ZM335.969 39.6302C335.966 41.9498 335.042 44.1733 333.4 45.8135C331.758 47.4536 329.532 48.3765 327.21 48.3798H142.799C140.477 48.3765 138.251 47.4536 136.609 45.8135C134.967 44.1733 134.043 41.9498 134.039 39.6302V9.77889C134.043 7.45938 134.967 5.23581 136.609 3.59566C138.251 1.95552 140.477 1.03264 142.799 1.02935H327.21C329.532 1.03264 331.758 1.95552 333.4 3.59566C335.042 5.23581 335.966 7.45938 335.969 9.77889V39.6302Z" fill="#3F3D56"/>
        <path d="M180.327 41.7249C176.957 41.7249 173.662 40.7267 170.86 38.8565C168.058 36.9863 165.874 34.3281 164.584 31.2181C163.294 28.108 162.957 24.6858 163.614 21.3842C164.272 18.0826 165.895 15.0498 168.278 12.6695C170.661 10.2892 173.697 8.66812 177.002 8.01138C180.308 7.35464 183.734 7.69169 186.848 8.97991C189.961 10.2681 192.623 12.4497 194.495 15.2486C196.367 18.0476 197.367 21.3383 197.367 24.7046C197.362 29.2171 195.565 33.5432 192.37 36.734C189.176 39.9248 184.845 41.7197 180.327 41.7249Z" fill="#62B8E4"/>
        <path d="M302.049 38.6009H213.479C212.386 38.6009 211.337 38.1672 210.564 37.395C209.791 36.6228 209.357 35.5755 209.357 34.4835C209.357 33.3915 209.791 32.3442 210.564 31.5721C211.337 30.7999 212.386 30.3661 213.479 30.3661H302.049C303.142 30.3661 304.19 30.7999 304.963 31.5721C305.736 32.3442 306.171 33.3915 306.171 34.4835C306.171 35.5755 305.736 36.6228 304.963 37.395C304.19 38.1672 303.142 38.6009 302.049 38.6009Z" fill="#CCCCCC"/>
        <path d="M242.792 21.1018H213.479C212.386 21.1018 211.337 20.668 210.564 19.8958C209.791 19.1237 209.357 18.0764 209.357 16.9844C209.357 15.8924 209.791 14.8451 210.564 14.0729C211.337 13.3008 212.386 12.8669 213.479 12.8669H242.792C243.885 12.8669 244.934 13.3008 245.707 14.0729C246.48 14.8451 246.914 15.8924 246.914 16.9844C246.914 18.0764 246.48 19.1237 245.707 19.8958C244.934 20.668 243.885 21.1018 242.792 21.1018Z" fill="#CCCCCC"/>
        <path d="M179.457 30.6914C179.034 30.6921 178.622 30.5555 178.284 30.3021L178.263 30.2864L173.846 26.9118C173.641 26.7553 173.469 26.56 173.34 26.3371C173.211 26.1141 173.127 25.8678 173.093 25.6124C173.059 25.3569 173.075 25.0973 173.142 24.8483C173.208 24.5993 173.324 24.3659 173.481 24.1613C173.637 23.9568 173.833 23.7852 174.057 23.6564C174.28 23.5275 174.527 23.4439 174.783 23.4104C175.038 23.3768 175.298 23.394 175.548 23.4609C175.797 23.5278 176.03 23.6431 176.235 23.8002L179.095 25.9914L185.855 17.1825C186.012 16.9783 186.208 16.8069 186.431 16.6781C186.654 16.5494 186.9 16.4657 187.155 16.432C187.411 16.3983 187.67 16.4152 187.919 16.4817C188.168 16.5482 188.401 16.663 188.606 16.8196L188.607 16.82L188.565 16.8782L188.608 16.82C189.02 17.1367 189.29 17.6039 189.358 18.1191C189.426 18.6342 189.287 19.1553 188.971 19.568L181.019 29.9245C180.835 30.1632 180.599 30.3563 180.328 30.4888C180.057 30.6214 179.76 30.6899 179.458 30.6891L179.457 30.6914Z" fill="white"/>
        <path d="M247.974 80.3168H63.5631C60.9672 80.3191 58.4784 81.3502 56.6429 83.1835C54.8074 85.0169 53.7752 87.5029 53.7728 90.0957V119.947C53.7752 122.54 54.8074 125.026 56.6429 126.859C58.4784 128.693 60.9672 129.724 63.5631 129.726H247.974C250.57 129.724 253.058 128.693 254.894 126.859C256.729 125.026 257.762 122.54 257.764 119.947V90.0957C257.762 87.5029 256.729 85.0169 254.894 83.1835C253.058 81.3502 250.57 80.3191 247.974 80.3168Z" fill="white"/>
        <path d="M247.974 80.3168H63.5631C60.9672 80.3191 58.4784 81.3502 56.6429 83.1835C54.8074 85.0169 53.7752 87.5029 53.7728 90.0957V119.947C53.7752 122.54 54.8074 125.026 56.6429 126.859C58.4784 128.693 60.9672 129.724 63.5631 129.726H247.974C250.57 129.724 253.058 128.693 254.894 126.859C256.729 125.026 257.762 122.54 257.764 119.947V90.0957C257.762 87.5029 256.729 85.0169 254.894 83.1835C253.058 81.3502 250.57 80.3191 247.974 80.3168ZM256.733 119.947C256.73 122.267 255.806 124.49 254.164 126.13C252.522 127.77 250.296 128.693 247.974 128.697H63.5631C61.2408 128.693 59.0147 127.77 57.3726 126.13C55.7306 124.49 54.8066 122.267 54.8033 119.947V90.0957C54.8066 87.7762 55.7306 85.5526 57.3726 83.9124C59.0147 82.2723 61.2408 81.3494 63.563 81.3461H247.974C250.296 81.3494 252.522 82.2723 254.164 83.9124C255.806 85.5526 256.73 87.7762 256.733 90.0957V119.947Z" fill="#3F3D56"/>
        <path d="M101.091 122.042C97.7207 122.042 94.4262 121.043 91.624 119.173C88.8217 117.303 86.6377 114.645 85.3479 111.535C84.0582 108.425 83.7207 105.003 84.3782 101.701C85.0357 98.3994 86.6586 95.3666 89.0417 92.9863C91.4247 90.6059 94.461 88.9849 97.7664 88.3282C101.072 87.6714 104.498 88.0085 107.612 89.2967C110.725 90.5849 113.387 92.7664 115.259 95.5654C117.131 98.3644 118.131 101.655 118.131 105.021C118.126 109.534 116.329 113.86 113.134 117.051C109.94 120.242 105.609 122.036 101.091 122.042Z" fill="#62B8E4"/>
        <path d="M222.813 118.918H134.243C133.15 118.918 132.101 118.484 131.328 117.712C130.555 116.94 130.121 115.892 130.121 114.8C130.121 113.708 130.555 112.661 131.328 111.889C132.101 111.117 133.15 110.683 134.243 110.683H222.813C223.906 110.683 224.954 111.117 225.727 111.889C226.501 112.661 226.935 113.708 226.935 114.8C226.935 115.892 226.501 116.94 225.727 117.712C224.954 118.484 223.906 118.918 222.813 118.918Z" fill="#CCCCCC"/>
        <path d="M163.556 101.419H134.243C133.702 101.419 133.166 101.312 132.666 101.105C132.165 100.898 131.711 100.595 131.328 100.213C130.945 99.8303 130.642 99.3764 130.435 98.8768C130.227 98.3773 130.121 97.8419 130.121 97.3011C130.121 96.7604 130.227 96.225 130.435 95.7255C130.642 95.2259 130.945 94.772 131.328 94.3897C131.711 94.0074 132.165 93.7041 132.666 93.4971C133.166 93.2902 133.702 93.1837 134.243 93.1837H163.556C164.649 93.1837 165.698 93.6175 166.471 94.3897C167.244 95.1619 167.678 96.2091 167.678 97.3011C167.678 98.3932 167.244 99.4404 166.471 100.213C165.698 100.985 164.649 101.419 163.556 101.419Z" fill="#CCCCCC"/>
        <path d="M100.221 111.008C99.7978 111.009 99.3863 110.872 99.048 110.619L99.027 110.603L94.6105 107.229C94.4055 107.072 94.2334 106.877 94.104 106.654C93.9747 106.431 93.8906 106.185 93.8566 105.929C93.8226 105.674 93.8394 105.414 93.9059 105.165C93.9725 104.916 94.0876 104.683 94.2445 104.478C94.4015 104.274 94.5973 104.102 94.8208 103.973C95.0442 103.844 95.2909 103.761 95.5467 103.727C95.8025 103.694 96.0624 103.711 96.3116 103.778C96.5608 103.845 96.7943 103.96 96.9988 104.117L99.8595 106.308L106.619 97.4994C106.776 97.2952 106.972 97.1238 107.195 96.995C107.418 96.8663 107.664 96.7826 107.919 96.7489C108.175 96.7152 108.434 96.7321 108.683 96.7986C108.932 96.8651 109.166 96.9799 109.37 97.1365L109.371 97.1369L109.329 97.1951L109.372 97.1369C109.784 97.4536 110.054 97.9208 110.122 98.4359C110.19 98.9511 110.051 99.4722 109.735 99.8849L101.783 110.241C101.599 110.48 101.363 110.673 101.092 110.806C100.822 110.938 100.524 111.007 100.222 111.006L100.221 111.008Z" fill="white"/>
        <path d="M57.5831 87.0507C56.8421 86.7376 56.0413 86.5907 55.2372 86.6202C54.4332 86.6496 53.6454 86.8549 52.9293 87.2214C52.2133 87.5879 51.5864 88.1068 51.0928 88.7414C50.5992 89.3761 50.251 90.1112 50.0726 90.8949L37.6763 93.016L37.1295 100.855L54.5933 97.6138C55.9312 97.8259 57.3005 97.5404 58.4417 96.8114C59.583 96.0825 60.4169 94.9607 60.7854 93.6587C61.1539 92.3566 61.0315 90.9648 60.4413 89.7469C59.8511 88.529 58.8341 87.5697 57.5831 87.0507Z" fill="#FFB8B8"/>
        <path d="M36.2894 64.5511C38.0856 65.3571 39.5023 66.8228 40.2456 68.6441C40.989 70.4655 41.002 72.5027 40.2819 74.3334L33.0963 92.6023L42.1173 90.9461C42.6806 90.8427 43.2623 90.9485 43.7529 91.2437C44.2436 91.5388 44.6092 92.0029 44.7812 92.5486L46.5794 98.2569C46.6734 98.5552 46.7067 98.8691 46.6774 99.1804C46.6481 99.4917 46.5567 99.7939 46.4087 100.069C46.2608 100.345 46.0591 100.588 45.8157 100.785C45.5722 100.981 45.2919 101.127 44.9912 101.214L33.2661 104.595C31.7829 105.023 30.2206 105.102 28.7019 104.825C27.1832 104.548 25.7494 103.923 24.513 103C23.2767 102.076 22.2714 100.879 21.5762 99.5026C20.881 98.1258 20.5147 96.6068 20.5061 95.0649C20.5021 94.3443 20.5763 93.6255 20.7273 92.9209L25.654 69.9317C25.8932 68.8153 26.3794 67.7665 27.077 66.8621C27.7745 65.9577 28.6657 65.2205 29.6854 64.7047C30.7051 64.1888 31.8273 63.9073 32.97 63.8807C34.1127 63.8542 35.2468 64.0832 36.2894 64.5511Z" fill="#CCCCCC"/>
    </g>
    <defs>
        <clipPath id="clip0_31_648">
            <rect width="337" height="241" fill="white"/>
        </clipPath>
    </defs>
</svg>
